<?xml version="1.0" encoding="UTF-8" standalone="no"?>
<!-- Created with Inkscape (http://www.inkscape.org/) -->

<svg
   xmlns:dc="http://purl.org/dc/elements/1.1/"
   xmlns:cc="http://creativecommons.org/ns#"
   xmlns:rdf="http://www.w3.org/1999/02/22-rdf-syntax-ns#"
   xmlns:svg="http://www.w3.org/2000/svg"
   xmlns="http://www.w3.org/2000/svg"
   xmlns:sodipodi="http://sodipodi.sourceforge.net/DTD/sodipodi-0.dtd"
   xmlns:inkscape="http://www.inkscape.org/namespaces/inkscape"
   width="138.88791mm"
   height="57.151314mm"
   viewBox="0 0 138.88791 57.151314"
   version="1.1"
   id="svg8"
   inkscape:version="0.92.3 (2405546, 2018-03-11)"
   sodipodi:docname="logo.svg">
  <defs
     id="defs2" />
  <sodipodi:namedview
     id="base"
     pagecolor="#ffffff"
     bordercolor="#666666"
     borderopacity="1.0"
     inkscape:pageopacity="0.0"
     inkscape:pageshadow="2"
     inkscape:zoom="0.35"
     inkscape:cx="53.181378"
     inkscape:cy="-67.768844"
     inkscape:document-units="mm"
     inkscape:current-layer="layer1"
     showgrid="false"
     fit-margin-top="0"
     fit-margin-left="0"
     fit-margin-right="0"
     fit-margin-bottom="0"
     inkscape:window-width="927"
     inkscape:window-height="1025"
     inkscape:window-x="993"
     inkscape:window-y="27"
     inkscape:window-maximized="0" />
  <metadata
     id="metadata5">
    <rdf:RDF>
      <cc:Work
         rdf:about="">
        <dc:format>image/svg+xml</dc:format>
        <dc:type
           rdf:resource="http://purl.org/dc/dcmitype/StillImage" />
        <dc:title></dc:title>
      </cc:Work>
    </rdf:RDF>
  </metadata>
  <g
     inkscape:label="Layer 1"
     inkscape:groupmode="layer"
     id="layer1"
     transform="translate(-15.920131,-39.806084)">
    <g
       aria-label="decide"
       transform="scale(0.26458333)"
       style="font-style:normal;font-variant:normal;font-weight:normal;font-stretch:normal;font-size:106.66667175px;line-height:1.25;font-family:'Bitstream Vera Sans';-inkscape-font-specification:'Bitstream Vera Sans';letter-spacing:0px;word-spacing:0px;fill:#ffffff;fill-opacity:1;stroke:none;stroke-width:1px;stroke-linecap:butt;stroke-linejoin:miter;stroke-opacity:1"
       id="flowRoot815">
      <path
         d="m 102.72266,258.84505 v -31.5625 h 9.58333 v 81.04167 h -9.58333 v -8.75 q -3.020835,5.20834 -7.656252,7.76042 -4.583333,2.5 -11.041667,2.5 -10.572917,0 -17.239584,-8.4375 -6.614584,-8.4375 -6.614584,-22.1875 0,-13.75 6.614584,-22.1875 6.666667,-8.4375 17.239584,-8.4375 6.458334,0 11.041667,2.55208 4.635417,2.5 7.656252,7.70833 z m -32.656253,20.36459 q 0,10.57292 4.322917,16.61458 4.375,5.98959 11.979167,5.98959 7.604167,0 11.979167,-5.98959 4.375002,-6.04166 4.375002,-16.61458 0,-10.57292 -4.375002,-16.5625 -4.375,-6.04167 -11.979167,-6.04167 -7.604167,0 -11.979167,6.04167 -4.322917,5.98958 -4.322917,16.5625 z"
         style="fill:#ffffff;fill-opacity:1"
         id="path868"
         inkscape:connector-curvature="0" />
      <path
         d="m 181.94141,276.76172 v 4.6875 h -44.0625 q 0.625,9.89584 5.9375,15.10417 5.36458,5.15625 14.89583,5.15625 5.52084,0 10.67709,-1.35417 5.20833,-1.35416 10.3125,-4.0625 v 9.0625 q -5.15625,2.1875 -10.57292,3.33334 -5.41667,1.14583 -10.98958,1.14583 -13.95834,0 -22.13542,-8.125 -8.125,-8.125 -8.125,-21.97917 0,-14.32292 7.70833,-22.70833 7.76042,-8.4375 20.88542,-8.4375 11.77083,0 18.59375,7.60416 6.875,7.55209 6.875,20.57292 z m -9.58333,-2.8125 q -0.10417,-7.86458 -4.42709,-12.55208 -4.27083,-4.6875 -11.35416,-4.6875 -8.02084,0 -12.86459,4.53125 -4.79166,4.53125 -5.52083,12.76041 z"
         style="fill:#ffffff;fill-opacity:1"
         id="path870"
         inkscape:connector-curvature="0" />
      <path
         d="m 239.64975,252.23047 v 8.95833 q -4.0625,-2.23958 -8.17708,-3.33333 -4.0625,-1.14583 -8.22917,-1.14583 -9.32292,0 -14.47917,5.9375 -5.15625,5.88541 -5.15625,16.5625 0,10.67708 5.15625,16.61458 5.15625,5.88542 14.47917,5.88542 4.16667,0 8.22917,-1.09375 4.11458,-1.14583 8.17708,-3.38542 v 8.85417 q -4.01041,1.875 -8.33333,2.8125 -4.27084,0.9375 -9.11459,0.9375 -13.17708,0 -20.9375,-8.28125 -7.76041,-8.28125 -7.76041,-22.34375 0,-14.27084 7.8125,-22.44792 7.86458,-8.17708 21.51041,-8.17708 4.42709,0 8.64584,0.9375 4.21875,0.88541 8.17708,2.70833 z"
         style="fill:#ffffff;fill-opacity:1"
         id="path872"
         inkscape:connector-curvature="0" />
      <path
         d="m 256.42058,249.99089 h 9.58334 v 58.33333 h -9.58334 z m 0,-22.70834 h 9.58334 v 12.13542 h -9.58334 z"
         style="fill:#ffffff;fill-opacity:1"
         id="path874"
         inkscape:connector-curvature="0" />
      <path
         d="m 324.38933,258.84505 v -31.5625 h 9.58333 v 81.04167 h -9.58333 v -8.75 q -3.02083,5.20834 -7.65625,7.76042 -4.58333,2.5 -11.04167,2.5 -10.57291,0 -17.23958,-8.4375 -6.61459,-8.4375 -6.61459,-22.1875 0,-13.75 6.61459,-22.1875 6.66667,-8.4375 17.23958,-8.4375 6.45834,0 11.04167,2.55208 4.63542,2.5 7.65625,7.70833 z m -32.65625,20.36459 q 0,10.57292 4.32292,16.61458 4.375,5.98959 11.97916,5.98959 7.60417,0 11.97917,-5.98959 4.375,-6.04166 4.375,-16.61458 0,-10.57292 -4.375,-16.5625 -4.375,-6.04167 -11.97917,-6.04167 -7.60416,0 -11.97916,6.04167 -4.32292,5.98958 -4.32292,16.5625 z"
         style="fill:#ffffff;fill-opacity:1"
         id="path876"
         inkscape:connector-curvature="0" />
      <path
         d="m 403.60808,276.76172 v 4.6875 h -44.06251 q 0.625,9.89584 5.9375,15.10417 5.36459,5.15625 14.89584,5.15625 5.52083,0 10.67708,-1.35417 5.20834,-1.35416 10.3125,-4.0625 v 9.0625 q -5.15625,2.1875 -10.57291,3.33334 -5.41667,1.14583 -10.98959,1.14583 -13.95833,0 -22.13542,-8.125 -8.125,-8.125 -8.125,-21.97917 0,-14.32292 7.70834,-22.70833 7.76041,-8.4375 20.88541,-8.4375 11.77084,0 18.59376,7.60416 6.875,7.55209 6.875,20.57292 z m -9.58334,-2.8125 q -0.10416,-7.86458 -4.42708,-12.55208 -4.27084,-4.6875 -11.35417,-4.6875 -8.02083,0 -12.86458,4.53125 -4.79167,4.53125 -5.52084,12.76041 z"
         style="fill:#ffffff;fill-opacity:1"
         id="path878"
         inkscape:connector-curvature="0" />
    </g>
    <flowRoot
       xml:space="preserve"
       id="flowRoot823"
       style="font-style:normal;font-weight:normal;font-size:40px;line-height:1.25;font-family:Sans;letter-spacing:0px;word-spacing:0px;fill:#000000;fill-opacity:1;stroke:none;stroke-width:1px;stroke-linecap:butt;stroke-linejoin:miter;stroke-opacity:1"
       transform="scale(0.26458333)"><flowRegion
         id="flowRegion825"><rect
           id="rect827"
           width="217.14285"
           height="108.57143"
           x="305.71429"
           y="531.09113" /></flowRegion><flowPara
         id="flowPara829"></flowPara></flowRoot>    <flowRoot
       xml:space="preserve"
       id="flowRoot831"
       style="font-style:normal;font-weight:normal;font-size:40px;line-height:1.25;font-family:Sans;letter-spacing:0px;word-spacing:0px;fill:#000000;fill-opacity:1;stroke:none;stroke-width:1px;stroke-linecap:butt;stroke-linejoin:miter;stroke-opacity:1"
       transform="scale(0.26458333)"><flowRegion
         id="flowRegion833"><rect
           id="rect835"
           width="322.85715"
           height="202.85715"
           x="388.57144"
           y="465.37683" /></flowRegion><flowPara
         id="flowPara837"></flowPara></flowRoot>    <g
       aria-label="L"
       transform="matrix(0.67517319,-0.14228131,0.1484693,0.70453733,-175.71938,-200.13139)"
       style="font-style:normal;font-variant:normal;font-weight:normal;font-stretch:normal;font-size:106.66667175px;line-height:1.25;font-family:'Arial Black';-inkscape-font-specification:'Arial Black, ';letter-spacing:0px;word-spacing:0px;fill:#ffffff;fill-opacity:1;stroke:none;stroke-width:1px;stroke-linecap:butt;stroke-linejoin:miter;stroke-opacity:1"
       id="flowRoot839">
      <path
         d="m 322.09766,410.37272 h 23.59375 v 57.55208 h 36.82292 v 18.80209 h -60.41667 z"
         style="fill:#ffffff;fill-opacity:1"
         id="path881"
         inkscape:connector-curvature="0" />
    </g>
  </g>
</svg>
